<svg width="122" height="122" viewBox="0 0 122 122" fill="none" xmlns="http://www.w3.org/2000/svg">
<g clip-path="url(#clip0_808_13915)">
<path d="M96.5833 50.8333C110.618 50.8333 122 39.4518 122 25.4167C122 11.3816 110.618 0 96.5833 0C82.5483 0 71.1667 11.3816 71.1667 25.4167C71.1667 39.4518 82.5483 50.8333 96.5833 50.8333ZM86.4167 20.3333H91.5V15.25C91.5 12.444 93.7773 10.1667 96.5833 10.1667C99.3893 10.1667 101.667 12.444 101.667 15.25V20.3333H106.75C109.556 20.3333 111.833 22.6107 111.833 25.4167C111.833 28.2227 109.556 30.5 106.75 30.5H101.667V35.5833C101.667 38.3893 99.3893 40.6667 96.5833 40.6667C93.7773 40.6667 91.5 38.3893 91.5 35.5833V30.5H86.4167C83.6107 30.5 81.3333 28.2227 81.3333 25.4167C81.3333 22.6107 83.6107 20.3333 86.4167 20.3333ZM50.2132 73.9422L3.782 27.5059C8.25025 20.191 16.2362 15.25 25.4167 15.25H62.4945C61.5337 18.4728 61 21.8838 61 25.4167C61 41.4749 71.6445 55.0423 86.2591 59.4648L71.7868 73.9422C68.8131 76.9108 64.9091 78.3952 61 78.3952C57.096 78.3952 53.1869 76.9108 50.2132 73.9422ZM121.919 50.386L122 96.5833C122 110.598 110.598 122 96.5833 122H25.4167C11.4019 122 0 110.598 0 96.5833V40.6667C0 39.8686 0.162667 39.1162 0.233833 38.3385L43.0253 81.13C47.9816 86.0863 54.4883 88.5618 61 88.5618C67.5117 88.5618 74.0184 86.0863 78.9747 81.13L99.2368 60.8678C108.092 60.2121 116.053 56.3437 121.924 50.386H121.919Z" fill="#006666"/>
</g>
<defs>
<clipPath id="clip0_808_13915">
<rect width="122" height="122" fill="white"/>
</clipPath>
</defs>
</svg>
