<?xml version="1.0" standalone="no"?>
<!DOCTYPE svg PUBLIC "-//W3C//DTD SVG 20010904//EN"
 "http://www.w3.org/TR/2001/REC-SVG-20010904/DTD/svg10.dtd">
<svg version="1.0" xmlns="http://www.w3.org/2000/svg"
 width="1080.000000pt" height="720.000000pt" viewBox="0 0 1080.000000 720.000000"
 preserveAspectRatio="xMidYMid meet">

<g transform="translate(0.000000,720.000000) scale(0.100000,-0.100000)"
fill="#000000" stroke="none">
<path d="M3890 3575 l0 -2825 850 0 850 0 0 1391 c0 976 3 1390 11 1387 5 -2
21 -35 34 -73 59 -175 169 -396 755 -1513 l625 -1192 1033 0 1034 0 -20 33
c-124 208 -379 636 -947 1592 -373 627 -703 1183 -735 1236 l-58 97 128 213
c410 688 1470 2472 1470 2475 0 2 -453 4 -1007 4 l-1008 -1 -290 -592 c-159
-326 -428 -873 -597 -1217 -170 -343 -330 -680 -357 -748 -26 -67 -52 -124
-57 -125 -5 -1 -10 573 -12 1341 l-2 1342 -850 0 -850 0 0 -2825z"/>
</g>
</svg>
