<svg width="16" height="17" viewBox="0 0 16 17" fill="none" xmlns="http://www.w3.org/2000/svg">
<path d="M9.33366 1.83203H4.00033C3.6467 1.83203 3.30756 1.97251 3.05752 2.22256C2.80747 2.4726 2.66699 2.81174 2.66699 3.16536V13.832C2.66699 14.1857 2.80747 14.5248 3.05752 14.7748C3.30756 15.0249 3.6467 15.1654 4.00033 15.1654H12.0003C12.3539 15.1654 12.6931 15.0249 12.9431 14.7748C13.1932 14.5248 13.3337 14.1857 13.3337 13.832V5.83203L9.33366 1.83203Z" stroke="#006666" stroke-linecap="round" stroke-linejoin="round"/>
<path d="M9.33301 1.83203V5.83203H13.333" stroke="#006666" stroke-linecap="round" stroke-linejoin="round"/>
<path d="M10.6663 9.16797H5.33301" stroke="#006666" stroke-linecap="round" stroke-linejoin="round"/>
<path d="M10.6663 11.832H5.33301" stroke="#006666" stroke-linecap="round" stroke-linejoin="round"/>
<path d="M6.66634 6.5H5.99967H5.33301" stroke="#006666" stroke-linecap="round" stroke-linejoin="round"/>
</svg>
