<svg width="20" height="20" viewBox="0 0 20 20" fill="none" xmlns="http://www.w3.org/2000/svg">
<path d="M9.99967 10.6654C10.3679 10.6654 10.6663 10.3669 10.6663 9.9987C10.6663 9.63051 10.3679 9.33203 9.99967 9.33203C9.63148 9.33203 9.33301 9.63051 9.33301 9.9987C9.33301 10.3669 9.63148 10.6654 9.99967 10.6654Z" fill="#006666" stroke="#006666" stroke-width="1.5" stroke-linecap="round" stroke-linejoin="round"/>
<path d="M14.6667 10.6654C15.0349 10.6654 15.3333 10.3669 15.3333 9.9987C15.3333 9.63051 15.0349 9.33203 14.6667 9.33203C14.2985 9.33203 14 9.63051 14 9.9987C14 10.3669 14.2985 10.6654 14.6667 10.6654Z" fill="#006666" stroke="#006666" stroke-width="1.5" stroke-linecap="round" stroke-linejoin="round"/>
<path d="M5.33366 10.6654C5.70185 10.6654 6.00033 10.3669 6.00033 9.9987C6.00033 9.63051 5.70185 9.33203 5.33366 9.33203C4.96547 9.33203 4.66699 9.63051 4.66699 9.9987C4.66699 10.3669 4.96547 10.6654 5.33366 10.6654Z" fill="#006666" stroke="#006666" stroke-width="1.5" stroke-linecap="round" stroke-linejoin="round"/>
</svg>
