<svg width="16" height="16" viewBox="0 0 16 16" fill="none" xmlns="http://www.w3.org/2000/svg">
<g clip-path="url(#clip0_1271_5173)">
<path d="M7.99967 14.6654C11.6816 14.6654 14.6663 11.6806 14.6663 7.9987C14.6663 4.3168 11.6816 1.33203 7.99967 1.33203C4.31778 1.33203 1.33301 4.3168 1.33301 7.9987C1.33301 11.6806 4.31778 14.6654 7.99967 14.6654Z" stroke="#006666" stroke-linecap="round" stroke-linejoin="round"/>
<path d="M6.05957 6.00038C6.21631 5.55483 6.52567 5.17912 6.93287 4.9398C7.34007 4.70049 7.81883 4.61301 8.28435 4.69285C8.74987 4.7727 9.17211 5.01473 9.47629 5.37607C9.78046 5.7374 9.94694 6.19473 9.94624 6.66705C9.94624 8.00038 7.94624 8.66705 7.94624 8.66705" stroke="#006666" stroke-linecap="round" stroke-linejoin="round"/>
<path d="M8 11.332H8.00667" stroke="#006666" stroke-linecap="round" stroke-linejoin="round"/>
</g>
<defs>
<clipPath id="clip0_1271_5173">
<rect width="16" height="16" fill="white"/>
</clipPath>
</defs>
</svg>
