<svg width="14" height="14" viewBox="0 0 14 14" fill="none" xmlns="http://www.w3.org/2000/svg">
<path d="M9.33301 12.25V11.0833C9.33301 10.4645 9.08717 9.871 8.64959 9.43342C8.21201 8.99583 7.61851 8.75 6.99967 8.75H2.91634C2.2975 8.75 1.70401 8.99583 1.26643 9.43342C0.82884 9.871 0.583008 10.4645 0.583008 11.0833V12.25" stroke="#727272" stroke-linecap="round" stroke-linejoin="round"/>
<path d="M4.95833 6.41667C6.247 6.41667 7.29167 5.372 7.29167 4.08333C7.29167 2.79467 6.247 1.75 4.95833 1.75C3.66967 1.75 2.625 2.79467 2.625 4.08333C2.625 5.372 3.66967 6.41667 4.95833 6.41667Z" stroke="#727272" stroke-linecap="round" stroke-linejoin="round"/>
<path d="M11.667 4.66406V8.16406" stroke="#727272" stroke-linecap="round" stroke-linejoin="round"/>
<path d="M13.417 6.41406H9.91699" stroke="#727272" stroke-linecap="round" stroke-linejoin="round"/>
</svg>
