<svg width="16" height="16" viewBox="0 0 16 16" fill="none" xmlns="http://www.w3.org/2000/svg">
<g clip-path="url(#clip0_1140_3085)">
<path d="M8.00016 14.6654C11.6821 14.6654 14.6668 11.6806 14.6668 7.9987C14.6668 4.3168 11.6821 1.33203 8.00016 1.33203C4.31826 1.33203 1.3335 4.3168 1.3335 7.9987C1.3335 11.6806 4.31826 14.6654 8.00016 14.6654Z" stroke="#727272" stroke-linecap="round" stroke-linejoin="round"/>
<path d="M6.06006 6.00038C6.21679 5.55483 6.52616 5.17912 6.93336 4.9398C7.34056 4.70049 7.81932 4.61301 8.28484 4.69285C8.75036 4.7727 9.1726 5.01473 9.47678 5.37607C9.78095 5.7374 9.94743 6.19473 9.94672 6.66705C9.94672 8.00038 7.94673 8.66705 7.94673 8.66705" stroke="#727272" stroke-linecap="round" stroke-linejoin="round"/>
<path d="M8 11.332H8.00667" stroke="#727272" stroke-linecap="round" stroke-linejoin="round"/>
</g>
<defs>
<clipPath id="clip0_1140_3085">
<rect width="16" height="16" fill="white"/>
</clipPath>
</defs>
</svg>
