<svg width="24" height="24" viewBox="0 0 24 24" fill="none" xmlns="http://www.w3.org/2000/svg">
<path d="M22.56 12.25C22.56 11.47 22.49 10.72 22.36 10H12V14.255H17.92C17.665 15.63 16.89 16.795 15.725 17.575V20.335H19.28C21.36 18.42 22.56 15.6 22.56 12.25Z" fill="#4285F4"/>
<path d="M11.9999 23.0037C14.9699 23.0037 17.4599 22.0187 19.2799 20.3387L15.7249 17.5788C14.7399 18.2388 13.4799 18.6287 11.9999 18.6287C9.13492 18.6287 6.70992 16.6937 5.84492 14.0938H2.16992V16.9438C3.97992 20.5388 7.69992 23.0037 11.9999 23.0037Z" fill="#34A853"/>
<path d="M5.845 14.0925C5.625 13.4325 5.5 12.7275 5.5 12.0025C5.5 11.2775 5.625 10.5725 5.845 9.9125V7.0625H2.17C1.4 8.59536 0.999321 10.2871 1 12.0025C1 13.7775 1.425 15.4575 2.17 16.9425L5.845 14.0925Z" fill="#FBBC05"/>
<path d="M11.9999 5.375C13.6149 5.375 15.0649 5.93 16.2049 7.02L19.3599 3.865C17.4549 2.09 14.9649 1 11.9999 1C7.69992 1 3.97992 3.465 2.16992 7.06L5.84492 9.91C6.70992 7.31 9.13492 5.375 11.9999 5.375Z" fill="#EA4335"/>
</svg>
