<svg width="16" height="16" viewBox="0 0 16 16" fill="none" xmlns="http://www.w3.org/2000/svg">
<g clip-path="url(#clip0_1140_1494)">
<path d="M6.6665 8.66795C6.95281 9.0507 7.31808 9.3674 7.73754 9.59657C8.157 9.82574 8.62084 9.96202 9.0976 9.99617C9.57437 10.0303 10.0529 9.96152 10.5007 9.79447C10.9486 9.62741 11.3552 9.36599 11.6932 9.02795L13.6932 7.02795C14.3004 6.39927 14.6363 5.55726 14.6288 4.68327C14.6212 3.80929 14.2706 2.97324 13.6526 2.35522C13.0345 1.73719 12.1985 1.38663 11.3245 1.37903C10.4505 1.37144 9.60851 1.70742 8.97984 2.31461L7.83317 3.45461" stroke="#727272" stroke-linecap="round" stroke-linejoin="round"/>
<path d="M9.33347 7.33283C9.04716 6.95008 8.68189 6.63338 8.26243 6.40421C7.84297 6.17503 7.37913 6.03875 6.90237 6.00461C6.4256 5.97047 5.94707 6.03925 5.49924 6.20631C5.0514 6.37337 4.64472 6.63479 4.3068 6.97283L2.3068 8.97283C1.69961 9.60151 1.36363 10.4435 1.37122 11.3175C1.37881 12.1915 1.72938 13.0275 2.3474 13.6456C2.96543 14.2636 3.80147 14.6142 4.67546 14.6217C5.54945 14.6293 6.39146 14.2934 7.02013 13.6862L8.16013 12.5462" stroke="#727272" stroke-linecap="round" stroke-linejoin="round"/>
</g>
<defs>
<clipPath id="clip0_1140_1494">
<rect width="16" height="16" fill="white"/>
</clipPath>
</defs>
</svg>
