<svg width="16" height="17" viewBox="0 0 16 17" fill="none" xmlns="http://www.w3.org/2000/svg">
<path d="M7.99967 9.16536C8.36786 9.16536 8.66634 8.86689 8.66634 8.4987C8.66634 8.13051 8.36786 7.83203 7.99967 7.83203C7.63148 7.83203 7.33301 8.13051 7.33301 8.4987C7.33301 8.86689 7.63148 9.16536 7.99967 9.16536Z" stroke="#727272" stroke-linecap="round" stroke-linejoin="round"/>
<path d="M12.6667 9.16536C13.0349 9.16536 13.3333 8.86689 13.3333 8.4987C13.3333 8.13051 13.0349 7.83203 12.6667 7.83203C12.2985 7.83203 12 8.13051 12 8.4987C12 8.86689 12.2985 9.16536 12.6667 9.16536Z" stroke="#727272" stroke-linecap="round" stroke-linejoin="round"/>
<path d="M3.33366 9.16536C3.70185 9.16536 4.00033 8.86689 4.00033 8.4987C4.00033 8.13051 3.70185 7.83203 3.33366 7.83203C2.96547 7.83203 2.66699 8.13051 2.66699 8.4987C2.66699 8.86689 2.96547 9.16536 3.33366 9.16536Z" stroke="#727272" stroke-linecap="round" stroke-linejoin="round"/>
</svg>
