<svg width="88" height="19" viewBox="0 0 88 19" fill="none" xmlns="http://www.w3.org/2000/svg">
<path d="M0.0750431 9.03135L0.114366 18.0553L2.90627 18.0806L5.68506 18.1059V13.6635C5.68506 11.2082 5.73749 9.25916 5.78992 9.32244C5.85546 9.39838 5.98653 9.6515 6.09139 9.89197C6.43219 10.7399 10.312 17.8021 10.5217 17.9667C10.679 18.0932 11.5048 18.1312 13.969 18.1059C15.7647 18.1059 17.2197 18.0553 17.2197 18.0173C17.2197 17.9667 15.922 15.8278 14.3491 13.2585L11.4786 8.58838L11.8456 8.00619C13.0253 6.13307 16.6954 0.134004 16.6954 0.0833793C16.6954 0.0454106 15.2011 0.0200981 13.3792 0.0200981H10.0761L7.99198 4.15869C6.83852 6.44947 5.85546 8.36057 5.78992 8.4365C5.73749 8.49978 5.68506 6.62666 5.68506 4.28525V0.0200981H2.86694H0.0488281L0.0750431 9.03135Z" fill="black"/>
<path d="M30.3011 0.181718C28.8069 0.725936 27.9024 1.67516 27.5092 3.11797C27.2471 4.11781 27.2602 4.76328 27.5748 5.73781C27.9024 6.77562 28.6365 7.59828 29.6457 8.07922C30.3011 8.38297 30.5502 8.43359 31.5725 8.43359C32.5687 8.43359 32.8571 8.38297 33.4731 8.10453C34.7708 7.50969 35.5572 6.48453 35.8456 5.02906C36.0029 4.20641 35.8587 3.05469 35.5048 2.25734C35.1902 1.53594 34.3382 0.71328 33.5649 0.384218C32.7129 0.0298425 31.022 -0.0714075 30.3011 0.181718ZM32.5818 2.51047C33.4076 3.25719 33.3945 5.16828 32.5556 5.99094C31.8085 6.71234 30.5108 6.29469 30.1963 5.23156C29.9079 4.19375 30.1045 3.05469 30.6812 2.52312C31.2973 1.96625 31.9658 1.96625 32.5818 2.51047Z" fill="black"/>
<path d="M75.8757 0.105993C74.2634 0.447712 73.2673 1.14381 72.6381 2.38412C72.2449 3.16881 72.2056 3.34599 72.2056 4.38381C72.2056 5.34568 72.258 5.63677 72.5464 6.21896C73.2411 7.62381 74.4338 8.33256 76.3475 8.45912C77.4092 8.53506 78.7986 8.35787 79.6244 8.02881L80.1356 7.83896V5.63677V3.43459H78.0384H75.9412V4.38381V5.32037L76.7014 5.29506L77.4486 5.26974L77.4879 5.86459L77.5272 6.47209H76.8849C75.7577 6.47209 75.063 5.81396 74.9188 4.61162C74.7877 3.51052 75.3383 2.51068 76.2427 2.18162C76.767 1.99177 78.2743 2.01709 78.8904 2.23224C79.1788 2.33349 79.4278 2.42209 79.454 2.42209C79.4671 2.42209 79.4802 1.94115 79.4802 1.35896V0.295837L78.8249 0.156618C78.1695 0.0173997 76.4 -0.00791283 75.8757 0.105993Z" fill="black"/>
<path d="M17.875 4.25781V8.37109H19.0547H20.2344L20.2606 6.055L20.2999 3.72625L22.0432 6.055L23.7865 8.37109H24.9006H26.0017V4.25781V0.14453H24.822H23.6423L23.6161 2.30875L23.5768 4.46031L21.9383 2.30875L20.2999 0.14453H19.094H17.875V4.25781Z" fill="black"/>
<path d="M36.8548 2.00406C37.1038 3.04187 37.5626 4.87703 37.864 6.09203L38.4146 8.30687L39.8695 8.34484L41.3244 8.38281L41.4555 7.90187C41.5341 7.63609 41.8487 6.42109 42.1764 5.20609C42.6483 3.40891 42.7794 3.06719 42.8449 3.37094C42.8973 3.58609 43.1595 4.63656 43.4347 5.71234C43.71 6.78812 43.9721 7.82594 44.0115 8.01578L44.0901 8.37016H45.4533H46.8165L46.9607 7.82594C47.2621 6.72484 48.9399 0.270155 48.9399 0.206874C48.9399 0.143593 46.4495 0.105624 46.4495 0.168905C46.2135 1.80156 45.545 5.82625 45.545 5.64906C45.5319 5.43391 44.6931 1.54844 44.4178 0.42203C44.3523 0.156249 44.2867 0.143593 42.9366 0.143593H41.5341L40.8394 2.71281C40.4724 4.11766 40.1579 5.38328 40.1579 5.50984C40.1579 5.64906 40.1316 5.725 40.0923 5.68703C40.0268 5.62375 39.2403 0.561249 39.2403 0.244843C39.2403 0.181561 38.5981 0.143593 37.8116 0.143593H36.396L36.8548 2.00406Z" fill="black"/>
<path d="M50.1196 4.25781V8.37109H52.8722H55.6379L55.5986 7.38391L55.5592 6.40937L54.2485 6.38406C53.5276 6.37141 52.8591 6.35875 52.7805 6.35875C52.6494 6.34609 52.6101 5.63734 52.6101 3.24531V0.14453H51.3648H50.1196V4.25781Z" fill="black"/>
<path d="M56.6733 4.25781V8.37109H59.4259H62.1785V7.42187C62.1785 6.90297 62.1392 6.46 62.0867 6.46C62.0212 6.44734 61.4576 6.42203 60.8022 6.40937C60.1599 6.38406 59.5177 6.35875 59.3997 6.35875C59.2162 6.34609 59.1638 6.23219 59.1638 5.77656V5.20703H60.4745H61.7853V4.25781V3.32125L60.5138 3.28328L59.2293 3.24531V2.67578V2.10625L60.5794 2.06828L61.9163 2.03031V1.09375V0.14453H59.2948H56.6733V4.25781Z" fill="black"/>
<path d="M63.4893 4.25781V8.37109H65.6258C68.6667 8.37109 69.6236 8.05469 70.6591 6.75109C71.9043 5.16906 71.6946 2.27078 70.2527 1.08109C69.3614 0.334374 68.4308 0.14453 65.77 0.14453H63.4893V4.25781ZM67.8672 2.41C68.4832 2.78969 68.7847 3.48578 68.706 4.44766C68.6274 5.59937 67.9851 6.28281 66.9103 6.39672C65.9535 6.49797 65.9797 6.56125 65.9797 4.27047C65.9797 3.13141 66.019 2.16953 66.0845 2.11891C66.2418 1.95437 67.4215 2.14422 67.8672 2.41Z" fill="black"/>
<path d="M81.5771 4.25781V8.37109H84.3297H87.0954L87.0561 7.38391L87.0168 6.40937L85.706 6.38406C84.9851 6.37141 84.3166 6.35875 84.238 6.35875C84.12 6.34609 84.0676 6.14359 84.0676 5.77656V5.20703H85.3783H86.6891V4.25781V3.32125L85.4176 3.28328L84.1331 3.24531V2.67578V2.10625L85.4832 2.06828L86.8202 2.03031V1.09375V0.14453H84.1987H81.5771V4.25781Z" fill="black"/>
<path d="M17.9407 9.91697C17.9014 10.0056 17.8883 11.8787 17.9014 14.0682L17.9407 18.0549L20.3656 18.0929C21.7026 18.1056 22.9216 18.0929 23.092 18.0549C23.3541 17.9917 23.3803 17.9157 23.3803 17.0424V16.0932H21.9385H20.4967V15.4731V14.8656L21.7419 14.8782C23.1575 14.9035 23.1575 14.9162 23.1051 13.8531C23.0527 12.9038 23.092 12.9292 21.7288 12.9292H20.4967V12.3596V11.7901H21.873H23.2624L23.2231 10.8029L23.1837 9.82838L20.5884 9.79041C18.5437 9.75244 17.9932 9.77775 17.9407 9.91697Z" fill="black"/>
<path d="M24.9269 9.85421C24.704 9.90483 24.6909 10.2086 24.6909 13.9422V17.9669L25.1628 18.0555C25.4249 18.0934 26.657 18.1187 27.9154 18.1061L30.1961 18.0808V17.0809V16.0937H28.7542H27.3124V15.4862V14.8661H28.597L29.8684 14.8534L29.8946 14.0687C29.8946 13.6258 29.8815 13.1955 29.8422 13.0942C29.7897 12.9676 29.4489 12.9297 28.5445 12.9297H27.3124V12.3601V11.7906H28.6887H30.0781L30.0388 10.8034L29.9995 9.8289L27.5746 9.81624C26.2376 9.80358 25.0448 9.81624 24.9269 9.85421Z" fill="black"/>
<path d="M31.4412 9.90456C31.4019 10.0058 31.3888 11.8789 31.4019 14.0685L31.4412 18.0552L32.4243 18.0932C34.0496 18.1564 33.9972 18.2071 33.9972 16.6883V15.3974L34.8885 15.3721C37.0905 15.2961 38.3227 14.2583 38.3227 12.4738C38.3095 11.1575 37.7459 10.3602 36.5531 10.0185C36.2648 9.94253 35.0065 9.84128 33.7743 9.80331C31.9131 9.74003 31.4936 9.76534 31.4412 9.90456ZM35.3604 11.9042C35.6094 12.1067 35.7012 12.651 35.5439 13.0686C35.4128 13.423 34.9933 13.6255 34.3904 13.6255C34.0758 13.6255 34.0627 13.5875 34.0234 12.6889C33.9972 12.0814 34.0365 11.7144 34.1414 11.6638C34.3249 11.5499 35.1113 11.7144 35.3604 11.9042Z" fill="black"/>
<path d="M39.6075 9.85421C39.3847 9.90483 39.3716 10.2086 39.3716 13.9422V17.9669L39.8435 18.0555C40.1056 18.0934 41.3377 18.1187 42.596 18.1061L44.8767 18.0808V17.0809V16.0937H43.4349H41.9931V15.4862V14.8661H43.2776L44.549 14.8534L44.5753 14.0687C44.5753 13.6258 44.5622 13.1955 44.5228 13.0942C44.4704 12.9676 44.1296 12.9297 43.2252 12.9297H41.9931V12.3601V11.7906H43.3694H44.7588L44.7194 10.8034L44.6801 9.8289L42.2552 9.81624C40.9183 9.80358 39.7255 9.81624 39.6075 9.85421Z" fill="black"/>
<path d="M46.1875 13.928V18.1172H47.0919C47.59 18.1172 48.1667 18.0792 48.3896 18.0413L48.7828 17.9653L48.7566 16.5858C48.7172 15.3708 48.7435 15.2063 48.9401 15.2063C49.3857 15.2063 49.8445 15.877 50.3164 17.2186L50.6047 18.0539L51.9417 18.0666C52.6626 18.0792 53.3049 18.0413 53.3442 17.9653C53.3835 17.902 53.2 17.3072 52.9379 16.6491C52.4398 15.4214 51.9024 14.6494 51.4043 14.4975C51.1684 14.4342 51.2077 14.3709 51.7582 14.0798C52.1121 13.9027 52.5053 13.5989 52.6364 13.4217C52.9903 12.9788 53.1476 12.1941 53.0165 11.6245C52.6757 10.1944 51.7189 9.84 48.0226 9.77672L46.1875 9.75141V13.928ZM50.0542 11.8523C50.2377 12.0169 50.3819 12.27 50.3819 12.4092C50.3819 12.8395 49.8445 13.3205 49.2678 13.3964L48.7435 13.4597L48.7566 12.6497C48.7697 12.2194 48.7828 11.7764 48.7959 11.6878C48.8221 11.3967 49.7134 11.5106 50.0542 11.8523Z" fill="black"/>
</svg>
