<svg width="64" height="64" viewBox="0 0 64 64" fill="none" xmlns="http://www.w3.org/2000/svg">
<path fill-rule="evenodd" clip-rule="evenodd" d="M51.9931 47.12V22C51.8731 18.88 50.6331 16.12 48.2331 13.76C45.8331 11.4 43.1131 10.12 39.9931 10H35.9931V2L23.9931 14L35.9931 26V18H39.9931C41.0731 18.08 41.9131 18.44 42.7531 19.24C43.5931 20.04 43.9531 20.92 43.9931 22V47.12C42.4702 47.9971 41.2799 49.3529 40.6072 50.9765C39.9345 52.6001 39.8171 54.4004 40.2733 56.0976C40.7295 57.7947 41.7338 59.2936 43.1299 60.361C44.526 61.4284 46.2357 62.0046 47.9931 62C49.7505 62.0046 51.4602 61.4284 52.8563 60.361C54.2523 59.2936 55.2566 57.7947 55.7128 56.0976C56.169 54.4004 56.0517 52.6001 55.379 50.9765C54.7063 49.3529 53.5159 47.9971 51.9931 47.12ZM47.9931 58.8C45.3531 58.8 43.1931 56.6 43.1931 54C43.1931 51.4 45.3931 49.2 47.9931 49.2C50.5931 49.2 52.7931 51.4 52.7931 54C52.7931 56.6 50.5931 58.8 47.9931 58.8ZM23.9931 14C23.9931 9.56 20.4331 6 15.9931 6C14.2357 5.99536 12.526 6.57156 11.1299 7.63899C9.73379 8.70643 8.72954 10.2053 8.27332 11.9024C7.81709 13.5996 7.93446 15.3999 8.60716 17.0235C9.27987 18.6471 10.4702 20.0029 11.9931 20.88V47.12C10.4702 47.9971 9.27987 49.3529 8.60716 50.9765C7.93446 52.6001 7.81709 54.4004 8.27332 56.0976C8.72954 57.7947 9.73379 59.2936 11.1299 60.361C12.526 61.4284 14.2357 62.0046 15.9931 62C17.7505 62.0046 19.4602 61.4284 20.8563 60.361C22.2523 59.2936 23.2566 57.7947 23.7128 56.0976C24.169 54.4004 24.0517 52.6001 23.379 50.9765C22.7063 49.3529 21.5159 47.9971 19.9931 47.12V20.88C22.3531 19.52 23.9931 16.96 23.9931 14ZM20.7931 54C20.7931 56.64 18.5931 58.8 15.9931 58.8C13.3931 58.8 11.1931 56.6 11.1931 54C11.1931 51.4 13.3931 49.2 15.9931 49.2C18.5931 49.2 20.7931 51.4 20.7931 54ZM15.9931 18.8C13.3531 18.8 11.1931 16.6 11.1931 14C11.1931 11.4 13.3931 9.2 15.9931 9.2C18.5931 9.2 20.7931 11.4 20.7931 14C20.7931 16.6 18.5931 18.8 15.9931 18.8Z" fill="#363636"/>
</svg>
