<svg width="49" height="49" viewBox="0 0 49 49" fill="none" xmlns="http://www.w3.org/2000/svg">
<path d="M9.41346 6.56615H30.6131C31.0723 6.56615 31.3785 6.24589 31.3785 5.7655C31.3785 5.28511 31.0723 4.96484 30.6131 4.96484H9.41346C8.95426 4.96484 8.64813 5.28511 8.64813 5.7655C8.64813 6.24589 9.0308 6.56615 9.41346 6.56615Z" fill="#363636"/>
<path d="M31.3785 11.2889C31.3785 10.8085 31.0723 10.4883 30.6131 10.4883H9.41346C8.95426 10.4883 8.64813 10.8085 8.64813 11.2889C8.64813 11.7693 8.95426 12.0896 9.41346 12.0896H30.6131C30.9958 12.0896 31.3785 11.6893 31.3785 11.2889Z" fill="#363636"/>
<path d="M48.3689 34.6683L45.9198 34.1078C45.7668 33.4673 45.5372 32.9069 45.231 32.3464L46.5321 30.1046C46.6852 29.7843 46.6852 29.384 46.4556 29.1438L44.6188 27.2222C44.3892 26.982 44.0065 26.902 43.7004 27.1422L41.5575 28.5033C41.0217 28.183 40.5625 28.0229 39.9503 27.7827V23.1389C39.9503 22.6585 39.7972 22.1781 39.5676 21.7778C39.1084 20.9771 38.2665 20.4167 37.3481 20.4167H36.0471V2.80229C36.0471 1.28105 34.8225 0 33.3684 0H6.50531C5.05118 0 3.82665 1.20098 3.82665 2.72222V15.933H2.60212C1.148 15.933 0 17.134 0 18.6552V46.2778C0 47.799 1.148 49 2.60212 49H32.6031C33.0623 49 33.3684 48.6797 33.3684 48.1993C33.3684 47.719 33.0623 47.3987 32.6031 47.3987H2.60212C1.98986 47.3987 1.53066 46.9183 1.53066 46.2778V18.6552C1.53066 18.0147 1.98986 17.5343 2.60212 17.5343H10.6381C11.2504 17.5343 11.7096 18.0147 11.7096 18.6552V21.1373C11.7096 21.6176 12.0157 21.9379 12.4749 21.9379H35.3583H37.3481C37.7308 21.9379 38.1135 22.1781 38.2665 22.4984C38.3431 22.6585 38.4196 22.8186 38.4196 23.0588V24.5H35.9705C35.5879 24.5 35.2817 24.7402 35.2052 25.1405L34.6695 27.7026C34.0572 27.8627 33.5215 28.1029 32.9858 28.4232L30.8428 27.0621C30.5367 26.902 30.154 26.902 29.9244 27.1422L28.0876 29.0637C27.858 29.3039 27.7815 29.7043 28.0111 30.0245L29.3122 32.2663C29.006 32.8268 28.7764 33.4673 28.6234 34.0278L26.1743 34.5882C25.7916 34.6683 25.562 34.9886 25.562 35.3889V38.1111C25.562 38.5114 25.7916 38.8317 26.1743 38.9118L28.6234 39.4722C28.7764 40.1127 29.006 40.6732 29.3122 41.2337L28.0111 43.4755C27.858 43.7958 27.858 44.1961 28.0876 44.4363L29.9244 46.3578C30.154 46.598 30.5367 46.6781 30.8428 46.4379L32.9858 45.0768C33.5215 45.3971 34.1337 45.6373 34.6695 45.7974L35.2817 48.3595C35.3583 48.7598 35.6644 49 36.0471 49H38.6492C39.0319 49 39.338 48.7598 39.4145 48.3595L39.9503 45.8775C40.5625 45.7173 41.0983 45.4771 41.634 45.1569L43.7769 46.518C44.083 46.6781 44.4657 46.6781 44.6953 46.4379L46.5321 44.5163C46.7617 44.2761 46.8382 43.8758 46.6086 43.5556L45.231 41.3137C45.5372 40.7533 45.7668 40.1127 45.9198 39.5523L48.3689 38.9918C48.7516 38.9118 48.9812 38.5915 48.9812 38.1912V35.469C48.9812 35.0686 48.7516 34.7484 48.3689 34.6683ZM10.6381 16.0131H5.35731V2.72222C5.35731 2.0817 5.89305 1.60131 6.50531 1.60131H33.445C34.0572 1.60131 34.5929 2.16176 34.5929 2.80229V20.4167H13.2402V18.7353C13.2402 17.2141 12.0157 16.0131 10.6381 16.0131ZM47.4505 37.4706L45.1545 38.031C44.8484 38.1111 44.6188 38.3513 44.6188 38.5915C44.4657 39.3922 44.1596 40.1928 43.7004 40.8333C43.5473 41.0735 43.5473 41.3938 43.7004 41.7141L44.9249 43.7957L43.93 44.8366L41.9401 43.5556C41.7105 43.3954 41.4044 43.3954 41.0983 43.5556C40.5625 43.9559 39.7972 44.2761 39.0319 44.4363C38.7257 44.5163 38.5727 44.7565 38.4961 44.9967L37.9604 47.3987H36.5828L36.0471 44.9967C35.9705 44.6765 35.7409 44.5163 35.5113 44.4363C34.746 44.2761 34.0572 43.9559 33.3684 43.4755C33.1388 43.3154 32.8327 43.3154 32.6031 43.4755L30.6132 44.7565L29.6183 43.7157L30.8428 41.634C30.9959 41.3938 30.9959 41.0735 30.8428 40.7533C30.4602 40.1127 30.154 39.3121 29.9244 38.5114C29.8479 38.1912 29.6183 37.951 29.3887 37.951L27.0927 37.3905V35.9493L29.3887 35.3889C29.6948 35.3088 29.9244 35.0686 29.9244 34.8284C30.0775 34.0278 30.3836 33.3072 30.8428 32.5866C30.9959 32.3464 30.9959 32.0261 30.8428 31.7859L29.6183 29.7042L30.6132 28.6634L32.6031 29.9444C32.8327 30.1046 33.1388 30.1046 33.3684 29.9444C34.0572 29.5441 34.746 29.2239 35.5113 28.9837C35.8175 28.9036 35.9705 28.6634 36.0471 28.4232L36.5828 26.0212H37.9604L38.4961 28.4232V28.5033V28.5833C38.4961 28.6634 38.5727 28.7435 38.6492 28.8235C38.7257 28.9036 38.8023 28.9036 38.8788 28.9837H38.9553H39.0319C39.7972 29.1438 40.5625 29.4641 41.1748 29.9444C41.4044 30.1046 41.7105 30.1046 42.0167 29.9444L44.0065 28.6634L45.0014 29.7042L43.7769 31.7859C43.6238 32.0261 43.6238 32.3464 43.7769 32.5866C44.1596 33.3072 44.4657 34.0278 44.6953 34.8284C44.7718 35.1487 45.0014 35.3889 45.231 35.3889L47.527 35.9493V37.4706H47.4505Z" fill="#363636"/>
<path d="M37.2716 32.5078C35.0521 32.5078 33.2153 34.4294 33.2153 36.7513C33.2153 39.0732 35.0521 40.9947 37.2716 40.9947C39.491 40.9947 41.3278 39.0732 41.3278 36.7513C41.3278 34.4294 39.491 32.5078 37.2716 32.5078ZM37.2716 39.4735C35.894 39.4735 34.746 38.2725 34.746 36.8313C34.746 35.3902 35.894 34.1892 37.2716 34.1892C38.6492 34.1892 39.7972 35.3902 39.7972 36.8313C39.7972 38.2725 38.6492 39.4735 37.2716 39.4735Z" fill="#363636"/>
</svg>
