<svg width="24" height="24" viewBox="0 0 24 24" fill="none" xmlns="http://www.w3.org/2000/svg">
<path d="M18.1875 15.0938V16.5C18.1875 17.5355 17.348 18.375 16.3125 18.375H15M5.8125 15.0938V16.5C5.8125 17.5355 6.65198 18.375 7.6875 18.375H8.90625M5.8125 8.8125V7.6875C5.8125 6.65198 6.65198 5.8125 7.6875 5.8125H8.90625M18.1875 8.8125V7.6875C18.1875 6.65198 17.348 5.8125 16.3125 5.8125H15M5.8125 13.1484V11.9531V10.7578M18.1875 13.1484V11.9531V10.7578M13.0078 5.8125H11.7656H10.7109M13.0078 18.375H11.7656H10.7109M8.625 14.25L10.8908 9.78917C10.903 9.76513 10.9277 9.75 10.9547 9.75C10.9823 9.75 11.0075 9.76598 11.0194 9.79101L13.125 14.25M9.75 13.125H11.8125M15.1875 14.25V9.75M18.1875 15H19.5M9 18.375V19.875" stroke="#1B1B1B" stroke-linecap="round"/>
<path d="M5.8125 15H4.3125" stroke="#1B1B1B" stroke-linecap="round" stroke-linejoin="round"/>
<path d="M9 5.8125V4.3125" stroke="#1B1B1B" stroke-linecap="round"/>
<path d="M18.1875 8.8125H19.5" stroke="#1B1B1B" stroke-linecap="round" stroke-linejoin="round"/>
<path d="M15 18.375V19.875" stroke="#1B1B1B" stroke-linecap="round"/>
<path d="M18.9375 11.4375H18.375V12.5625H18.9375V11.4375ZM21 12.5625C21.3107 12.5625 21.5625 12.3107 21.5625 12C21.5625 11.6893 21.3107 11.4375 21 11.4375V12.5625ZM18.9375 12.5625H21V11.4375H18.9375V12.5625ZM12.375 18.9375V18.375H11.25V18.9375H12.375ZM11.25 21C11.25 21.3107 11.5018 21.5625 11.8125 21.5625C12.1232 21.5625 12.375 21.3107 12.375 21H11.25ZM11.25 18.9375V21H12.375V18.9375H11.25ZM5.0625 11.4375H5.625V12.5625H5.0625V11.4375ZM3 12.5625C2.68933 12.5625 2.4375 12.3107 2.4375 12C2.4375 11.6893 2.68933 11.4375 3 11.4375V12.5625ZM5.0625 12.5625H3V11.4375H5.0625V12.5625ZM12.375 4.875V5.4375H11.25V4.875H12.375ZM11.25 2.8125C11.25 2.50183 11.5018 2.25 11.8125 2.25C12.1232 2.25 12.375 2.50183 12.375 2.8125H11.25ZM11.25 4.875V2.8125H12.375V4.875H11.25Z" fill="#1B1B1B"/>
<path d="M5.8125 8.8125H4.3125" stroke="#1B1B1B" stroke-linecap="round" stroke-linejoin="round"/>
<path d="M15 5.8125V4.3125" stroke="#1B1B1B" stroke-linecap="round"/>
</svg>
