<svg width="14" height="14" viewBox="0 0 14 14" fill="none" xmlns="http://www.w3.org/2000/svg">
<g clip-path="url(#clip0_772_21394)">
<path d="M6.41663 2.33594H2.33329C2.02387 2.33594 1.72713 2.45885 1.50833 2.67765C1.28954 2.89644 1.16663 3.19318 1.16663 3.5026V11.6693C1.16663 11.9787 1.28954 12.2754 1.50833 12.4942C1.72713 12.713 2.02387 12.8359 2.33329 12.8359H10.5C10.8094 12.8359 11.1061 12.713 11.3249 12.4942C11.5437 12.2754 11.6666 11.9787 11.6666 11.6693V7.58594" stroke="#727272" stroke-linecap="round" stroke-linejoin="round"/>
<path d="M10.7916 1.45619C11.0237 1.22412 11.3384 1.09375 11.6666 1.09375C11.9948 1.09375 12.3096 1.22412 12.5416 1.45619C12.7737 1.68825 12.9041 2.003 12.9041 2.33119C12.9041 2.65938 12.7737 2.97412 12.5416 3.20619L6.99996 8.74785L4.66663 9.33119L5.24996 6.99785L10.7916 1.45619Z" stroke="#727272" stroke-linecap="round" stroke-linejoin="round"/>
</g>
<defs>
<clipPath id="clip0_772_21394">
<rect width="14" height="14" fill="white"/>
</clipPath>
</defs>
</svg>
